<?xml version="1.0" encoding="utf-8"?>
<!-- Generator: Adobe Illustrator 18.0.0, SVG Export Plug-In . SVG Version: 6.00 Build 0)  -->
<!DOCTYPE svg PUBLIC "-//W3C//DTD SVG 1.1//EN" "http://www.w3.org/Graphics/SVG/1.1/DTD/svg11.dtd">
<svg version="1.1" id="Layer_1" xmlns="http://www.w3.org/2000/svg" xmlns:xlink="http://www.w3.org/1999/xlink" x="0px" y="0px"
	 viewBox="0 0 205.1 178.4" enable-background="new 0 0 205.1 178.4" xml:space="preserve">
<path fill="#F0A202" d="M147.7,71.4c4.4-1.6,8.6-3.2,12.8-4.5c8.3-2.6,16.7-4.4,25.5-3.9c3.4,0.2,6.9,0.8,10.1,2
	c6.9,2.5,9.4,8.1,7.3,15.1c-1.7,5.5-5,9.9-8.9,14c-8.1,8.6-17.7,15.1-28.1,20.3c-5.3,2.6-10.9,4.7-16.3,7c-0.3,0.1-0.7,0.2-1.3,0.4
	c0.2-0.6,0.3-1.1,0.4-1.5c0.7-2.4,1.4-4.8,2.1-7.2c0.1-0.3,0.1-0.7,0.2-1c0.4-4.9-2.2-6.8-6.7-5.1c-0.2,0.1-0.4,0.1-0.7,0.2
	c0-0.6,0-1.2,0-1.7c0-6.7,0-13.4,0-20.1c0-1.2-0.3-1.8-1.6-2.2c-11.1-3.2-22.4-5-33.9-5.4c-15.2-0.6-30.1,1-44.7,5.2
	c-0.3,0.1-0.7,0.2-1,0.3c-1.2,0.2-1.6,0.8-1.6,2c0.1,6.7,0,13.4,0,20.1c0,0.5,0,1.1,0,1.8c-0.7-0.2-1.3-0.5-1.9-0.6
	c-3.2-0.9-5.4,0.6-5.6,3.9c-0.2,3.1,0.9,6,1.9,8.9c0.3,0.7,0.5,1.4,0.9,2.2c-0.4,0-0.6,0.1-0.8,0c-16.4-5.8-31.3-14-43.8-26.3
	c-3.8-3.8-7.1-8-9.3-13c-1.1-2.5-1.8-5.1-1.5-7.9c0.4-4.6,3.1-7.6,7.2-9.4c5.2-2.3,10.6-2.6,16.1-2.2c10.8,0.7,21.1,3.7,31.1,7.8
	c0.5,0.2,1.1,0.4,1.9,0.7c0-0.8,0-1.3,0-1.9c0.1-5.6,0-11.3,0.2-16.9c0.4-11.9,3.6-23,9.5-33.3c2.3-4.1,5-7.9,7.7-11.8
	c3.2-4.5,7.5-5.8,12.8-4.2c3.5,1,7.1,2,10.7,3c2.9,0.8,5.8,0.8,8.7,0c4-1.1,8-2.2,12-3.2c4.1-1,7.5,0.1,10.4,3.3
	c5.7,6.4,9.7,13.9,13,21.8c3.4,8.2,5.2,16.9,5.3,25.8c0.1,5.2,0.1,10.4,0.1,15.6C147.7,70.2,147.7,70.7,147.7,71.4z M102.6,38.5
	c-6.2,0-11.3,5-11.3,11.2c-0.1,6.2,5.1,11.4,11.3,11.4c6.2,0,11.4-5.2,11.3-11.4C113.9,43.6,108.8,38.5,102.6,38.5z"/>
<path fill="#F0A202" d="M61.6,108.6c5.9,13.3,11.8,26.7,17.7,40c0.1,0,0.2,0,0.4,0c0-0.5,0.1-1.1,0.1-1.6c0.1-2.6-0.1-5.3,0.3-7.9
	c0.7-4.8,3.6-8.1,8-10.1c0.5-0.2,1.1-0.5,1.8-0.8c-1.7-2.7-1.6-5.3,0.6-7.6c1-1,2.3-1.8,3.5-2.5c0.8-0.5,1.3-0.8,1.4-1.9
	c0.8-6.2,1.7-12.4,2.6-18.6c0-0.2,0-0.6,0.1-0.7c0.3-0.3,0.7-0.6,1-0.9c0.2,0.4,0.6,0.7,0.6,1.1c-0.2,2-0.5,4.1-0.7,6.1
	c-0.7,4.7-1.4,9.5-2,14.2c-0.1,1-0.6,1.5-1.5,2c-1.4,0.7-2.7,1.5-3.8,2.6c-0.7,0.6-1.1,1.7-1.2,2.6c-0.2,2,1.2,3.2,3.1,2.8
	c2.6-0.5,5.1-0.4,7.6,0.6c0.9,0.4,2.1,0.4,3,0c2.5-1,5-1.1,7.6-0.6c2.2,0.4,3.7-1.3,3-3.6c-0.5-1.8-1.8-2.8-3.3-3.7
	c-0.7-0.4-1.6-0.7-2.3-1.1c-0.3-0.2-0.3-0.7-0.5-1.1c0.3-0.1,0.7-0.4,1-0.4c4.8,0.3,8.1,5.8,6.1,10.1c-0.1,0.2-0.1,0.4-0.2,0.6
	c0.4,0.2,0.8,0.4,1.2,0.6c6,2.6,8.8,7.3,8.7,13.7c0,2,0,4.1,0,6.1c0.2,0,0.3,0.1,0.5,0.1c5.9-13.3,11.8-26.7,17.7-40
	c0.1,0,0.2,0,0.3,0c0,0.5,0,1,0,1.5c0,7.7,0,15.4,0,23.1c0,3.2-0.8,6.2-2.5,8.9c-4.3,7.2-8.7,14.3-12.9,21.6
	c-4.6,7.7-11.3,11.7-20.3,11.8c-4.2,0-8.5,0.1-12.7-0.1c-7.4-0.3-13.4-3.6-17.4-9.8c-5.2-8.1-10-16.4-14.8-24.6
	c-1.3-2.2-1.8-4.7-1.8-7.3c0-7.9,0-15.8,0-23.7c0-0.5,0-0.9,0-1.4C61.4,108.7,61.5,108.6,61.6,108.6z M102.6,149.8
	c4.6-1.2,9.4-2.3,14.2-3.6c1-0.3,1-1,0.1-1.6c-0.7-0.5-1.5-0.9-2.2-1.2c-1.8-0.8-3.5-2.1-5.5-1.4c-4.4,1.4-8.7,1.3-13.2,0
	c-3-0.8-5.6,1.4-8.1,2.8c-0.9,0.5-0.4,1.2,0.4,1.5c1.3,0.4,2.7,0.8,4,1.2C95.7,148.2,99,149,102.6,149.8z"/>
<path fill="#F0A202" d="M79.8,94.8c-1.9,0-3.5,0-5.1,0c-1.5,0-2.1-0.6-2.1-1.9c0-1.4,0.9-1.7,2.1-1.7c6,0,12.1,0,18.1,0
	c1.6,0,2.2,0.5,2.2,1.8c-0.1,1.4-1,1.8-2.3,1.8c-1.6,0-3.2,0-4.9,0c0.6,2.1,0.4,3.8-1.5,4.9c-1.8,1-3.7,1-5.4-0.1
	C79.3,98.5,79,96.9,79.8,94.8z"/>
<path fill="#F0A202" d="M125.4,94.8c0.7,2.1,0.4,3.8-1.3,4.8c-1.8,1.1-3.6,1-5.4,0c-1.8-1.1-1.9-2.7-1.4-4.8c-1.8,0-3.4,0-5,0
	c-1.1,0-1.9-0.3-2.1-1.5c-0.3-1.3,0.5-2.1,2-2.1c3.7,0,7.5,0,11.2,0c2.4,0,4.8,0,7.2,0c1.2,0,1.9,0.4,1.9,1.7c0,1.4-0.8,1.9-2,1.9
	C128.9,94.8,127.3,94.8,125.4,94.8z"/>
<path fill="#F0A202" d="M111.7,47c-2.1,0-4.1,0-6.1,0c-0.4,0-0.9-0.5-1.1-0.9c-0.6-1.7-1.2-3.5-2.1-5.3c-0.4,1.3-0.9,2.5-1.3,3.8
	c-0.8,2.5-0.8,2.5-3.4,2.5c-1.3,0-2.6,0-3.9,0c-0.1,0-0.2-0.1-0.3-0.1c0.5-3.5,4.4-6.6,8.5-6.7C106.6,39.9,110.6,42.7,111.7,47z"/>
<path fill="#F0A202" d="M96.9,57.4c-3.2-2-4.8-6.4-3.6-10.1c1.8,1.3,3.5,2.5,5.1,3.8c0.2,0.1,0.2,0.6,0.2,0.8
	C98.1,53.7,97.5,55.6,96.9,57.4z"/>
<path fill="#F0A202" d="M111.8,47.3c1.2,3.6-0.3,8-3.5,10.1c-0.6-1.9-1.2-3.7-1.7-5.5c-0.1-0.3,0.1-0.8,0.4-1
	C108.4,49.7,110,48.6,111.8,47.3z"/>
<path fill="#F0A202" d="M107.7,57.7c-2.7,2.2-7.4,2.2-10.3,0c1.6-1.1,3.1-2.3,4.6-3.3c0.3-0.2,0.8-0.2,1.1,0
	C104.6,55.5,106.1,56.6,107.7,57.7z"/>
</svg>
